<?xml version="1.0" standalone="no"?>
<!DOCTYPE svg PUBLIC "-//W3C//DTD SVG 20010904//EN"
 "http://www.w3.org/TR/2001/REC-SVG-20010904/DTD/svg10.dtd">
<svg version="1.0" xmlns="http://www.w3.org/2000/svg"
 width="800.000000pt" height="800.000000pt" viewBox="0 0 800.000000 800.000000"
 preserveAspectRatio="xMidYMid meet">
<metadata>
Created by potrace 1.14, written by Peter Selinger 2001-2017
</metadata>
<g transform="translate(0.000000,800.000000) scale(0.100000,-0.100000)"
fill="#000000" stroke="none">
<path d="M369 6928 c-1 -13 -3 -43 -3 -68 -1 -25 -4 -50 -7 -55 -12 -22 -2
-186 17 -291 22 -124 118 -292 216 -381 71 -65 190 -154 306 -230 64 -43 118
-81 120 -85 2 -4 8 -8 13 -8 5 0 28 -12 52 -27 23 -15 51 -32 62 -38 52 -29
121 -70 125 -75 3 -4 12 -10 20 -13 8 -4 33 -19 55 -32 22 -14 48 -28 57 -31
9 -3 19 -12 22 -20 4 -10 0 -11 -22 -3 -15 6 -27 10 -27 9 0 -1 -20 3 -44 10
-25 6 -54 13 -65 15 -12 1 -28 5 -36 8 -8 4 -42 11 -75 16 -33 6 -72 13 -88
16 -15 2 -53 9 -85 15 -137 24 -212 40 -292 62 -76 20 -96 28 -205 76 -56 26
-224 126 -235 141 -13 17 -92 73 -96 68 -3 -3 -2 -16 2 -29 4 -13 8 -25 9 -28
3 -16 29 -86 41 -108 8 -15 14 -32 14 -38 0 -6 25 -51 56 -100 97 -154 217
-250 404 -323 47 -18 94 -37 105 -41 25 -10 194 -55 250 -65 11 -3 40 -9 65
-16 25 -6 56 -13 70 -15 14 -3 41 -9 60 -14 41 -11 100 -22 118 -23 6 0 12 -4
12 -9 0 -4 -22 -9 -50 -10 -54 -2 -81 -4 -150 -12 -25 -3 -72 -8 -105 -12 -33
-3 -67 -7 -75 -9 -8 -2 -49 -6 -90 -10 -41 -4 -84 -9 -95 -11 -88 -17 -457
-24 -550 -10 -143 21 -178 27 -190 35 -5 3 -21 7 -33 9 -33 4 -17 -19 73 -110
118 -119 306 -208 495 -233 25 -3 52 -8 60 -10 21 -6 160 -15 439 -29 57 -3
106 -7 108 -9 2 -2 -30 -16 -69 -32 -40 -15 -77 -32 -83 -36 -5 -5 -17 -9 -27
-9 -10 0 -18 -4 -18 -10 0 -5 -8 -10 -18 -10 -10 0 -22 -4 -27 -9 -19 -18
-250 -129 -310 -150 -73 -24 -103 -29 -175 -30 l-55 -1 45 -29 c25 -15 49 -28
54 -29 5 0 12 -4 15 -9 5 -7 55 -34 71 -38 3 -1 23 -9 45 -19 66 -29 191 -60
285 -72 44 -5 298 -5 365 1 80 7 228 22 287 31 21 3 52 7 70 9 18 3 76 7 128
10 l95 6 -30 -21 c-16 -11 -34 -20 -38 -20 -4 0 -33 -16 -63 -35 -30 -19 -59
-35 -64 -35 -6 0 -10 -3 -10 -8 0 -4 -29 -27 -65 -51 -36 -24 -65 -48 -65 -53
0 -4 -6 -8 -14 -8 -8 0 -16 -4 -18 -8 -3 -7 -156 -106 -168 -108 -3 0 -18 -6
-35 -13 -16 -7 -54 -18 -82 -24 -29 -6 -53 -15 -53 -19 0 -11 55 -32 115 -46
139 -31 241 -31 400 2 40 8 150 37 165 43 8 3 17 7 20 8 3 1 13 5 22 9 9 4 22
8 30 10 7 1 42 12 78 25 66 23 79 28 93 30 4 0 21 8 38 17 17 8 38 17 47 19
10 2 49 14 87 28 78 28 177 57 194 57 6 0 -10 -30 -36 -67 -26 -38 -62 -90
-80 -118 -18 -27 -37 -55 -43 -62 -5 -7 -15 -24 -22 -38 -6 -14 -15 -25 -20
-25 -4 0 -8 -6 -8 -13 0 -7 -8 -22 -17 -33 -10 -10 -37 -44 -60 -74 -79 -104
-181 -199 -252 -235 -45 -23 -120 -45 -153 -45 -15 0 -30 -5 -33 -10 -4 -6 -3
-10 2 -9 4 1 11 0 16 -1 4 -1 12 -4 17 -5 6 -1 12 -4 15 -5 3 -1 10 -4 15 -5
6 -1 11 -3 13 -5 9 -7 54 -11 132 -12 105 -1 216 28 330 88 67 35 167 97 191
119 7 5 24 19 40 30 44 31 110 89 224 195 58 54 130 121 160 149 30 28 58 51
61 51 4 0 3 -17 -1 -37 -7 -30 -7 -179 0 -243 4 -36 54 -180 94 -268 64 -144
98 -248 113 -345 13 -84 3 -258 -17 -311 -5 -14 -8 -26 -5 -26 2 0 -2 -18 -10
-40 -8 -22 -12 -40 -9 -40 2 0 -2 -14 -11 -30 -9 -17 -11 -30 -6 -30 29 0 159
176 220 298 54 107 104 256 135 402 16 73 25 119 30 155 4 23 9 52 11 65 3 14
8 43 11 65 3 22 9 60 14 85 5 25 11 63 14 85 3 22 8 51 10 65 3 14 7 41 10 60
8 51 16 91 23 125 3 17 7 37 9 45 1 8 6 36 12 62 13 64 7 192 -12 262 -49 178
-180 344 -425 540 -69 56 -144 112 -166 126 -22 13 -42 27 -45 30 -6 7 -138
89 -190 117 -19 11 -64 36 -100 55 -36 20 -105 59 -155 88 -49 29 -110 64
-135 78 -24 14 -85 50 -135 80 -49 30 -99 60 -110 66 -11 6 -119 70 -240 142
-121 72 -247 146 -280 164 -33 18 -75 42 -93 52 -19 10 -97 51 -174 90 -194
98 -422 232 -493 290 -5 5 -32 25 -60 45 -94 70 -275 247 -275 269 0 3 -8 18
-19 32 -39 55 -70 119 -91 190 -12 39 -24 72 -26 72 -2 0 -5 -10 -5 -22z"/>
<path d="M7607 6885 c-25 -81 -75 -178 -132 -253 -26 -35 -174 -182 -210 -208
-22 -16 -44 -35 -48 -41 -4 -7 -12 -13 -17 -13 -6 0 -21 -10 -35 -22 -47 -41
-278 -182 -390 -238 -60 -30 -112 -57 -115 -60 -3 -3 -41 -23 -85 -46 -149
-75 -451 -247 -480 -271 -5 -5 -17 -12 -25 -16 -8 -4 -28 -16 -45 -27 -16 -11
-37 -23 -45 -27 -8 -3 -17 -9 -20 -12 -3 -4 -43 -31 -90 -61 -47 -30 -87 -57
-90 -60 -3 -3 -52 -36 -110 -75 -58 -38 -109 -73 -115 -78 -5 -4 -82 -60 -170
-123 -88 -63 -162 -118 -165 -122 -3 -4 -23 -20 -45 -37 -154 -113 -346 -339
-429 -504 -22 -43 -53 -124 -62 -163 -2 -10 -6 -28 -9 -40 -14 -57 -11 -200 6
-293 12 -69 16 -138 14 -225 -4 -130 -15 -189 -83 -416 -43 -142 -53 -203 -52
-314 2 -109 7 -147 35 -242 25 -89 87 -232 105 -243 13 -8 13 1 -1 45 -24 83
-30 221 -11 300 7 30 15 66 18 80 3 14 25 66 50 115 49 99 55 110 134 240 70
116 105 184 131 259 29 80 34 114 34 224 0 55 4 92 10 92 6 0 46 -35 90 -76
146 -139 189 -179 255 -234 35 -30 73 -63 84 -73 66 -58 260 -169 361 -206 72
-26 199 -38 295 -27 55 6 156 44 124 47 -5 0 -22 2 -39 3 -50 4 -99 17 -122
32 -13 8 -23 12 -23 9 0 -4 -27 12 -59 35 -62 44 -133 114 -191 190 -19 25
-37 47 -40 50 -14 13 -250 373 -250 381 0 5 12 6 28 3 37 -9 284 -91 462 -154
172 -61 150 -55 280 -84 58 -12 113 -22 123 -20 9 1 17 -1 17 -6 0 -4 8 -6 18
-4 9 2 55 5 102 8 96 5 185 22 216 42 11 8 23 12 26 9 3 -3 11 3 19 12 7 10
10 15 6 12 -15 -13 -147 29 -224 71 -43 23 -80 45 -83 49 -3 3 -31 24 -62 45
-32 21 -65 46 -75 55 -28 25 -151 104 -218 140 -33 18 -62 35 -64 37 -5 5 172
-11 229 -21 14 -3 50 -7 80 -10 57 -6 98 -10 185 -20 113 -12 176 -16 285 -17
116 -1 270 16 301 32 9 5 19 7 21 4 8 -8 179 56 252 95 110 58 118 63 112 69
-3 3 -40 7 -81 8 -70 3 -215 42 -240 65 -5 5 -17 9 -26 9 -10 0 -19 4 -21 8
-5 12 -287 148 -348 167 -70 22 -84 35 -40 36 19 1 53 3 75 4 22 1 101 5 175
9 74 4 153 9 175 11 125 12 159 16 164 20 4 2 27 6 51 10 96 13 249 76 340
139 54 36 138 118 169 164 l23 33 -38 -7 c-22 -3 -46 -10 -55 -15 -9 -5 -19
-6 -22 -3 -3 3 -12 2 -19 -2 -7 -4 -19 -9 -28 -10 -129 -15 -188 -18 -310 -17
-132 0 -254 7 -334 19 -17 2 -56 7 -86 10 -30 2 -66 7 -80 9 -14 3 -55 7 -90
11 -36 3 -81 7 -100 9 -19 2 -73 7 -120 10 -46 3 -86 7 -87 9 -2 1 52 15 120
31 97 22 273 65 407 99 145 38 380 147 380 177 0 5 5 9 10 9 26 0 144 132 189
210 33 58 71 140 71 154 0 8 4 17 9 20 8 6 20 46 28 100 l4 29 -53 -45 c-112
-95 -213 -155 -354 -211 -99 -39 -188 -65 -285 -81 -19 -3 -44 -8 -55 -10 -12
-2 -37 -7 -55 -10 -19 -3 -45 -8 -59 -11 -14 -3 -38 -8 -55 -10 -92 -16 -242
-48 -299 -65 -36 -10 -66 -16 -66 -12 1 6 190 122 344 211 89 51 335 218 401
271 194 158 310 354 333 560 10 97 2 261 -15 308 -8 20 -11 15 -26 -33z"/>
<path d="M4595 6163 c-133 -30 -186 -37 -270 -34 -217 8 -296 4 -319 -19 -6
-6 -16 -10 -23 -10 -7 0 -47 -20 -89 -45 -41 -25 -77 -45 -79 -45 -2 0 -50
-28 -107 -61 -169 -101 -315 -162 -445 -185 -15 -3 -30 -7 -35 -10 -4 -3 -8 0
-8 6 0 7 -6 8 -17 2 -19 -9 -142 -8 -180 1 -38 10 -27 -17 22 -51 25 -18 50
-32 54 -32 5 0 11 -4 13 -8 5 -12 85 -47 153 -67 63 -18 195 -24 298 -13 53 6
59 4 85 -21 33 -33 83 -134 116 -233 29 -85 40 -137 51 -238 15 -129 5 -382
-20 -530 -3 -19 -13 -75 -21 -125 -20 -117 -21 -125 -28 -155 -3 -14 -8 -36
-10 -50 -2 -14 -18 -86 -35 -160 -17 -74 -32 -147 -35 -162 -3 -15 -7 -31 -9
-35 -3 -5 -8 -24 -11 -43 -3 -19 -12 -60 -20 -92 -9 -31 -17 -67 -20 -80 -6
-27 -8 -36 -36 -164 -13 -55 -24 -106 -25 -114 -1 -8 -5 -26 -8 -40 -4 -14 -9
-37 -12 -52 -3 -16 -7 -38 -10 -50 -2 -13 -13 -75 -25 -138 -11 -63 -22 -124
-24 -135 -4 -20 -15 -102 -22 -159 -2 -17 -6 -49 -9 -71 -26 -202 -37 -544
-22 -710 4 -38 9 -97 12 -130 3 -33 8 -71 10 -85 3 -14 8 -41 11 -60 3 -19 10
-55 15 -80 5 -25 12 -57 15 -73 3 -15 16 -64 30 -110 14 -45 26 -86 28 -92 21
-81 105 -279 163 -387 29 -55 53 -103 53 -108 0 -5 4 -10 8 -12 4 -2 20 -23
34 -48 25 -43 143 -211 177 -253 50 -61 81 -90 81 -79 0 10 -36 107 -71 187
-7 17 -67 203 -74 230 -5 20 -6 25 -16 57 -6 18 -12 42 -14 53 -3 11 -9 40
-15 65 -13 59 -19 96 -26 145 -3 22 -7 47 -9 55 -24 88 -24 569 0 642 2 7 6
31 9 53 3 22 9 60 15 85 5 25 12 59 16 77 3 18 10 45 16 60 6 15 10 28 9 28
-5 0 53 181 61 190 5 5 9 15 9 22 0 8 9 33 20 55 11 23 20 45 20 50 0 4 16 42
35 84 19 41 35 77 35 78 0 2 26 57 57 122 31 66 57 121 58 124 1 3 33 70 72
150 71 147 122 255 162 343 39 85 101 282 115 364 21 121 17 342 -8 467 -20
96 -27 129 -41 181 -25 93 -117 369 -128 383 -5 6 -7 12 -4 12 3 0 -3 26 -14
58 -11 31 -23 68 -25 82 -3 14 -11 48 -19 75 -8 28 -17 73 -21 100 -3 28 -8
59 -10 70 -7 34 -6 148 1 200 25 180 132 328 346 476 35 25 78 52 94 61 17 9
58 31 93 50 46 26 73 34 102 32 51 -3 44 13 -24 54 -78 47 -153 54 -281 25z"/>
</g>
</svg>
